/* XPM */
static const char *animeted_gun_1[] = {
/* columns rows colors chars-per-pixel */
"92 102 74 1 ",
"  c black",
". c #000800",
"X c #0C0804",
"o c #0C0C0C",
"O c #180804",
"+ c #1C0C0C",
"@ c #18100C",
"# c gray8",
"$ c gray11",
"% c #200C04",
"& c #280C08",
"* c #301008",
"= c #38140C",
"- c #281414",
"; c #341818",
": c #34201C",
"> c #302C1C",
", c gray14",
"< c #2C2C2C",
"1 c #3C3828",
"2 c gray22",
"3 c #401810",
"4 c #481C10",
"5 c #502014",
"6 c #542C18",
"7 c #582818",
"8 c #583018",
"9 c #60341C",
"0 c #4C2020",
"q c #5C3838",
"w c #643820",
"e c #6C3C24",
"r c #744028",
"t c #78482C",
"y c #5C3C40",
"u c gray25",
"i c #484848",
"p c gray33",
"a c gray36",
"s c #684040",
"d c #646464",
"f c gray44",
"g c #7C7C7C",
"h c #804C30",
"j c #845034",
"k c #8C583C",
"l c #945C40",
"z c #986044",
"x c #A06848",
"c c #A46C50",
"v c #AC7454",
"b c #B47858",
"n c #9C7474",
"m c #B88060",
"M c #C08464",
"N c #C48C6C",
"B c #CC9474",
"V c #D4A07C",
"C c gray55",
"Z c #989898",
"A c gray66",
"S c #B4B4B4",
"D c #DCB08C",
"F c #E4C09C",
"G c #ECD0AC",
"H c #C0C0C0",
"J c #D0D0D0",
"K c #F4E0C0",
"L c #FCF0D4",
"P c #D0D4E0",
"I c #E4E4E4",
"U c #FCF0F0",
"Y c gray99",
"T c None",
/* pixels */
"TTTTTTTTTTTTTTTTTTTTTTTTTTTTTTTTTTTTTTTTTTTTTTTTTTTTTTTTTTTTTTTTTTTTTTTTTTTTTTTTTTTTTTTTTTTT",
"TTTTTTTTTTTTTTTTTTTTTTTTTTTTTTTTTTTTTTTTTTTTTTTTTTTTTTTTTTTTTTTTTTTTTTTTTTTTTTTTTTTTTTTTTTTT",
"TTTTTTTTTTTTTTTTTTTTTTTTTTTTTTTTTTTTTTTTTTTTTTTTTTTTTTTTTTTTTTTTTTTTTTTTTTTTTTTTTTTTTTTTTTTT",
"TTTTTTTTTTTTTTTTTTTTTTTTTTTTTTTTTTTTTTTTTTTTTTTTTTTTTTTTTTTTTTTTTTTTTTTTTTTTTTTTTTTTTTTTTTTT",
"TTTTTTTTTTTTTTTTTTTTTTTTTTTTTTTTTTTTTTTTTTTTTTTTTTTTTTTTTTTTTTTTTTTTTTTTTTTTTTTTTTTTTTTTTTTT",
"TTTTTTTTTTTTTTTTTTTTTTTTTTTTTTTTTTTTTTTTTTTTTTTTTTTTTTTTTTTTTTTTTTTTTTTTTTTTTTTTTTTTTTTTTTTT",
"TTTTTTTTTTTTTTTTTTTTTTTTTTTTTTTTTTTTTTTTTTTTTTTTTTTTTTTTTTTTTTTTTTTTTTTTTTTTTTTTTTTTTTTTTTTT",
"TTTTTTTTTTTTTTTTTTTTTTTTTTTTTTTTTTTTTTTTTTTTTTTTTTTTTTTTTTTTTTTTTTTTTTTTTTTTTTTTTTTTTTTTTTTT",
"TTTTTTTTTTTTTTTTTTTTTTTTTTTTTTTTTTTTTTTTTTTTTTTTTTTTTTTTTTTTTTTTTTTTTTTTTTTTTTTTTTTTTTTTTTTT",
"TTTTTTTTTTTTTTTTTTTTTTTTTTTTTTTTTTTTTTTTTTTTTTTTTTTTTTTTTTTTTTTTTTTTTTTTTTTTTTTTTTTTTTTTTTTT",
"TTTTTTTTTTTTTTTTTTTTTTTTTTTTTTTTTTTTTTTTTTTTTTTTTTTTTTTTTTTTTTTTTTTTTTTTTTTTTTTTTTTTTTTTTTTT",
"TTTTTTTTTTTTTTTTTTTTTTTTTTTTTTTTTTTTTTTTTTTTTTTTTTTTTTTTTTTTTTTTTTTTTTTTTTTTTTTTTTTTTTTTTTTT",
"TTTTTTTTTTTTTTTTTTTTTTTTTTTTTTTTTTTTTTTTTTTTTTTTTTTTTTTTTTTTTTTTTTTTTTTTTTTTTTTTTTTTTTTTTTTT",
"TTTTTTTTTTTTTTTTTTTTTTTTTTTTTTTTTTTTTTTTTTTTTTTTTTTTTTTTTTTTTTTTTTTTTTTTTTTTTTTTTTTTTTTTTTTT",
"TTTTTTTTTTTTTTTTTTTTTTTTTTTTTTTTTTTTTTTTTTTTTTTTTTTTTTTTTTTTTTTTTTTTTTTTTTTTTTTTTTTTTTTTTTTT",
"TTTTTTTTTTTTTTTTTTTTTTTTTTTTTTTTTTTTTTTTTTTTTTTTTTTTTTTTTTTTTTTTTTTTTTTTTTTTTTTTTTTTTTTTTTTT",
"TTTTTTTTTTTTTTTTTTTTTTTTTTTTTTTTTTTTTTTTTTTTTTTTTTTTTTTTTTTTTTTTTTTTTTTTTTTTTTTTTTTTTTTTTTTT",
"TTTTTTTTTTTTTTTTTTTTTTTTTTTTTTTTTTTTTTTTTTTTTTTTTTTTTTTTTTTTTTTTTTTTTTTTTTTTTTTTTTTTTTTTTTTT",
"TTTTTTTTTTTTTTTTTTTTTTTTTTTTTTTTTTTTTTTTTTTTTTTTTTTTTTTTTTTTTTTTTTTTTTTTTTTTTTTTTTTTTTTTTTTT",
"TTTTTTTTTTTTTTTTTTTTTTTTTTTTTTTTTTTTTTTTTTTTTTTTTTTTTTTTTTTTTTTTTTTTTTTTTTTTTTTTTTTTTTTTTTTT",
"TTTTTTTTTTTTTTTTTTTTTTTTTTTTTTTTTTTTTTTTTTTTTTTTTTTTTTTTTTTTTTTTTTTTTTTTTTTTTTTTTTTTTTTTTTTT",
"TTTTTTTTTTTTTTTTTTTTTTTTTTTTTTTTTTTTTTTTTTTTTTTTTTTTTTTTTTTTTTTTTTTTTTTTTTTTTTTTTTTTTTTTTTTT",
"TTTTTTTTTTTTTTTTTTTTTTTTTTTTTTTTTTTTTTTTTTTTTTTTTTTTTTTTTTTTTTTTTTTTTTTTTTTTTTTTTTTTTTTTTTTT",
"TTTTTTTTTTTTTTTTTTTTTTTTTTTTTTTTTTTTTTTTTTTTTTTTTTTTTTTTTTTTTTTTTTTTTTTTTTTTTTTTTTTTTTTTTTTT",
"TTTTTTTTTTTTTTTTTTTTTTTTTTTTTTTTTTTTTTTTTTTTTTTTTTTTTTTTTTTTTTTTTTTTTTTTTTTTTTTTTTTTTTTTTTTT",
"TTTTTTTTTTTTTTTTTTTTTTTTTTTTTTTTTTTTTTTTTTTTTTTTTTTTTTTTTTTTTTTTTTTTTTTTTTTTTTTTTTTTTTTTTTTT",
"TTTTTTTTTTTTTTTTTTTTTTTTTTTTTTTTTTTTTTTTTTTTTTTTTTTTTTTTTTTTTTTTTTTTTTTTTTTTTTTTTTTTTTTTTTTT",
"TTTTTTTTTTTTTTTTTTTTTTTTTTTTTTTTTTTTTTTTTTTTTTTTTTTTTTTTTTTTTTTTTTTTTTTTTTTTTTTTTTTTTTTTTTTT",
"TTTTTTTTTTTTTTTTTTTTTTTTTTTTTTTTTTTTTTTTTTTTTTTTTTTTTTTTTTTTTTTTTTTTTTTTTTTTTTTTTTTTTTTTTTTT",
"TTTTTTTTTTTTTTTTTTTTT2<$TTTTTTTTTTTTTTTTTTTTTTTTTTTTTTTTTTTTTTTTTTTTTTTTTTTTTTTTTTTTTTTTTTTT",
"TTTTTTTTTTTTTTTTTTooo##o#TTTTTTTTTTTTTTTTTTTTTTTTTTTTTTTTTTTTTTTTTTTTTTTTTTTTTTTTTTTTTTTTTTT",
"TTTTTTTTTTTTTTTTTo#,,,<<<,22TTTTTTTTTTTTTTTTTTTTTTTTTTTTTTTTTTTTTTTTTTTTTTTTTTTTTTTTTTTTTTTT",
"TTTTTTTTTTTTTTTTooo#<uuppapu2u2<TTTTTTTTTTTTTTTTTTTTTTTTTTTTTTTTTTTTTTTTTTTTTTTTTTTTTTTTTTTT",
"TTTTTTTTTTTTTTTT,<,o$,2uuipaapu22i2<TTTTTTTTTTTTTTTTTTTTTTTTTTTTTTTTTTTTTTTTTTTTTTTTTTTTTTTT",
"TTTTTTTTTTTTTTT$$2iuu2,,<222iippiipiipi2TTTTTTTTTTTTTTTTTTTTTTTTTTTTTTTTTTTTTTTTTTTTTTTTTTTT",
"TTTTTTTTTTTTTTT$$$<ipppu,$,<222uupdddappppagTTTTTTTTTTTTTTTTTTTTTTTTTTTTTTTTTTTTTTTTTTTTTTTT",
"TTTTTTTTTTTTTTT,<22<upgdpu,<<<222updffaddiuuagTTTTTTTTTTTTTTTTTTTTTTTTTTTTTTTTTTTTTTTTTTTTTT",
"TTTTTTTTTTTTTTT<uiii22udCAgi<,<<upppf$<<<$$<2pgTTTTTTTTTTTTTTTTTTTTTTTTTTTTTTTTTTTTTTTTTTTTT",
"TTTTTTTTTTTTTTT2iippiu2uaZCda,<2pdppA2udJA<$2upgTTTTTTTTTTTTTTTTTTTTTTTTTTTTTTTTTTTTTTTTTTTT",
"TTTTTTTTTTTTTTT<iipaiiu<<ipu<222dpdppC#oooo.<2upgTTTTTTTTTTTTTTTTTTTTTTTTTTTTTTTTTTTTTTTTTTT",
"TTTTTTTTTTTTTTTT2ipappiu$,<<ap<2pfZd2C$oo  o#22upTTTTTTTTTTTTTTTTTTTTTTTTTTTTTTTTTTTTTTTTTTT",
"TTTTTTTTTTTTTTTT,upappiu<$aSSgi2pgSgipgoooooo2uuupTTTTTTTTTTTTTTTTTTTTTTTTTTTTTTTTTTTTTTTTTT",
"TTTTTTTTTTTTTTTTT2pappiu2$agSi,pgZJAp2g <$oo <iduuTTTTTTTTTTTTTTTTTTTTTTTTTTTTTTTTTTTTTTTTTT",
"TTTTTTTTTTTTTTTTT<aappiu2,,$i,2CAPJZdup $u<$ #iCd<pTTTTTTTTTTTTTTTTTTTTTTTTTTTTTTTTTTTTTTTTT",
"TTTTTTTTTTTTTTTTT,pappiu<,,<$,pSJYUAgu2oooooooHYCuuTTTTTTTTTTTTTTTTTTTTTTTTTTTTTTTTTTTTTTTTT",
"TTTTTTTTTTTTTTTTT$2afau2<,,,$$gZYYJAga<ouiSdZu$YSi2pTTTTTTTTTTTTTTTTTTTTTTTTTTTTTTTTTTTTTTTT",
"TTTTTTTTTTTTTTTTT2,<agiu,,,$$#<pZJJCgduoupApfu$HJp22TTTTTTTTTTTTTTTTTTTTTTTTTTTTTTTTTTTTTTTT",
"TTTTTTTTTTTTTTTTTT2$<api<$$$$<$<pZHCgduoidSufu$ZCu2<TTTTTTTTTTTTTTTTTTTTTTTTTTTTTTTTTTTTTTTT",
"TTTTTTTTTTTTTTTTTTT2$<2i2,,,#2i$<pZgga<oiaIUPHiCai<,TTTTTTTTTTTTTTTTTTTTTTTTTTTTTTTTTTTTTTTT",
"TTTTTTTTTTTTTTTTTTTT2,,2<,$$,CP2o,dadu<idSu#oo2a2p<$TTTTTTTTTTTTTTTTTTTTTTTTTTTTTTTTTTTTTTTT",
"TTTTTTTTTTTTTTTTTTTTT2<2<,,<<2ui,X,22u<dSu#oo#X ,<,$$TTTTTTTTTTTTTTTTTTTTTTTTTTTTTTTTTTTTTTT",
"TTTTTTTTTTTTTTTTTTTTT<uu2,,<<2,pgpX,2u<fi22i2XXoo,oo$TTTTTTTTTTTTTTTTTTTTTTTTTTTTTTTTTTTTTTT",
"TTTTTTTTTTTTTTTTTTTTT<upu<<,,p,dgg ,<,X,2222<X##oooo$TTTTTTTTTTTTTTTTTTTTTTTTTTTTTTTTTTTTTTT",
"TTTTTTTTTTTTTTTTTTTTT<uiu2,,$uXdZp #,#X#,,,<,XX,$$o#$=47TTTTTTTTTTTTTTTTTTTTTTTTTTTTTTTTTTTT",
"TTTTTTTTTTTTTTTTTTTTTT222,<,$iX2CXX#,XX###$#2oX2au,#$34566wtTTTTTTTTTTTTTTTTTTTTTTTTTTTTTTTT",
"TTTTTTTTTTTTTTTTTTTTTT<2<,$$#,X#X. <2,Xo.X  <22ip2o#oo%%*3wtzvzTTTTTTTTTTTTTTTTTTTTTTTTTTTTT",
"TTTTTTTTTTTTTTTTTTTTTT<22,$##XXX...#<#XXX.X X#u2,#$$o ***=5elzzkjtTTTTTTTTTTTTTTTTTTTTTTTTTT",
"TTTTTTTTTTTewrhjjjklvvvckt,oooXXX   X<<##$2pfpu$##oooo%%*3whjkzzzzzjrTTTTTTTTTTTTTTTTTTTTTTT",
"TTTTTTTTTT8zBVDDDDDDDDDDVBbwo  ooooX#,#      oo   >;OO&ehxccxzzzccvMNctTTTTTTTTTTTTTTTTTTTTT",
"TTTTTTTTT8vVFGFFFFFDDDDDBBBmmBBc9$ #o#$o   oooo.$:=hkzzvvbbmvccvmmmNBVMcTTTTTTTTTTTTTTTTTTTT",
"TTTTTTTTTtDGGGGGFFFFFFFDDDDBNvmmbvv6###.....oo o3hzbvvmbbmmmmbvmNNNNBBVNzTTTTTTTTTTTTTTTTTTT",
"TTTTTTTTTMFKKKGGGGGFFFFFFDDBNmvccvcmm& .   #$<9hhlvxxvvvvbvvmmbMNBBBBDDDNTTTTTTTTTTTTTTTTTTT",
"TTTTTTTTTVKKLKKKKGGGGGGFFFDMMmvczxccmM6 oo5rhzmbvxzlzxvvvvvvmmmNBBBVDDFFBeTTTTTTTTTTTTTTTTTT",
"TTTTTTTTTVKLLLLKKKKGGGGGGFVMMvvcxzzlcbBVxttrrjkhjjzzzxcccvvmmNNBBBVDDFGFFtTTTTTTTTTTTTTTTTTT",
"TTTTTTTTTmKKGGGKKKKKKKKKGFVBNbvvczzzzzxmVmcktreertkkzxccvvvmMNBBBBVDFFDDFkTTTTTTTTTTTTTTTTTT",
"TTTTTTTTTcGGFGGGKKKKKKLKGFDBMmbvvczzzzzxmMMblhhhhjjlzxcvvbmmMNNBBVVDDDDFGzTTTTTTTTTTTTTTTTTT",
"TTTTTTTTTxGFFFFGGKKKLLLKGFDBMNMmvbczzzzzxvbbclljjklzzxcvvvmmMNNBBVVVVVVDGzTTTTTTTTTTTTTTTTTT",
"TTTTTTTTTrFDDDDFFGKKLLKKKGDVBNMmbvcxzzzllzvvxlkjkkkkllxccvvmMMNBBBVVVVVVFtTTTTTTTTTTTTTTTTTT",
"TTTTTTTTTTVDVVBDDGKKKKKKGGFDBVNMmbccxxzzzzzxxxklkkklllzcvvvbMMNNBBBVVVVDFeTTTTTTTTTTTTTTTTTT",
"TTTTTTTTTTNDVvxMMDGGKKKKKGGFFDVNmmbvcczzzzlzzzzzzzklllzccvvbmMNNNBBVVVVDFrTTTTTTTTTTTTTTTTTT",
"TTTTTTTTTTMDVmxetmFKGKKKLGGFFFDBNNmbccczzlllklllklzzzzzxccvbmMNNNBBBVVVDDtTTTTTTTTTTTTTTTTTT",
"TTTTTTTTTTMVBMch94xGGKKKKKGGGFDDBNNbvccxzlkkkkkkllzzzxxcccvbmMMNNBBBVVVDDtTTTTTTTTTTTTTTTTTT",
"TTTTTTTTTTmVVmcjw94VGGKKKKKGGFDDDVNmmvcczzzzkkkkkkklxxccccvbmMMNNBBBVVVDDkTTTTTTTTTTTTTTTTTT",
"TTTTTTTTTTbVNvcke849DGGKKKKGGFFDDDBBmbvcczlzlkkkkkllzxccccvvbmNNNNBBVVVDDV9TTTTTTTTTTTTTTTTT",
"TTTTTTTTTTbVNvcjtw67eFGGKKKKGGFFDDDBNmbvczzzllkkkkklzxcccxcvbmNNNNBVVVVDDNNrTTTTTTTTTTTTTTTT",
"TTTTTTTTTTzNNvcjtw884BGGKKKKGGGFFDDBMmMvcczzzzzkkkklzzxxxxxvbmMNNBBVVVVDDDDzwTTTTTTTTTTTTTTT",
"TTTTTTTTTTzNbcxjtr63&8FGKKKKKGGFFFDVBNMmbcczzzzzkkkkklzzzzcbmmMMNNBBVVVDDBFx9TTTTTTTTTTTTTTT",
"TTTTTTTTTTjNvxzjt75kclDGKKKKKKGGFDDVVNNNMmcczzzzzkklzzlzllxvmmmMMNNNBVVDDBDmwTTTTTTTTTTTTTTT",
"TTTTTTTTTTTxxxxtejNNNvBGKKKKKGGGFDDDVBNNNMvvczzzzzzzzlzzlzxcbbbmMNNBBBVDVBBvwTTTTTTTTTTTTTTT",
"TTTTTTTTTTTTTTTlBDFDBmcFGKKKKKGGFFDDVBNNNBBNmvxzzzzzzzzzzxxxvbmmNNNNBBVBVVNcwTTTTTTTTTTTTTTT",
"TTTTTTTTTTTTTTTBDDGKVbkBGGKKKKKGGFFDDBNMBVVBmmvczzzzxzzzzxxxvvmMNNNBBNVVBBVcrTTTTTTTTTTTTTTT",
"TTTTTTTTTTTTTTlDFVGLBvtxGGKKKKKGGFFDDVNNMBVDBmvczzllzzzlzzxcbvbMNNMNNNBBBVDMtTTTTTTTTTTTTTTT",
"TTTTTTTTTTTTTTcDFVGFNctzFGGGKKKKGGFDDVBNMMBVDBmvvzzzzzzzzzxxcvvbmbbmNNBBMBVvhTTTTTTTTTTTTTTT",
"TTTTTTTTTTTTTTxDFBFFNbreBGGGGGKGGGFDDVBNNMMVDFBmvczzkzzzlzzxccvvbvbmmNBNNVDBkTTTTTTTTTTTTTTT",
"TTTTTTTTTTTTTTtDFVDDNch9hGFGGGGGGGFFDVBNNNNNVFFVBmczkkkkzlzzzxcxccvvbbMNmBDBkTTTTTTTTTTTTTTT",
"TTTTTTTTTTTTTTtBFDVDNckewFFFGGGGGGGFDDVBNNNBBDFFDBmcczlzkkzkklcxxccvmmMmmMBVkTTTTTTTTTTTTTTT",
"TTTTTTTTTTTTTTtvDDDFVMzw7MGFFGGGGGGFFDDVBNBBVDFFFVBNvzzzzzkhkkkzccxvvbbmbMBVzTTTTTTTTTTTTTTT",
"TTTTTTTTTTTTTTTtBDDVVBMt5wDFFFGGGGGGFDDDVBBBVDFGGDVBmvczkkhtjkkzzxxcccccvmBNxTTTTTTTTTTTTTTT",
"TTTTTTTTTTTTTTTTtkvvMbl63=BFFFFGGGGGFFDDDVVBVDFGGFDVBmvzzzkhhjjjklkklxcccbvxztTTTTTTTTTTTTTT",
"TTTTTTTTTTTTTTTTTjNFFBNvj94VFFFFFFFGFFFDDVVVVDGGGGFDVNNvmmckkhjjjjhkzzxcvcllktTTTTTTTTTTTTTT",
"TTTTTTTTTTTTTTTTTMDFDDVvt9=9VFFFFFFFFFFFDVVVDFGGGGFDDVBNNmvclkkkjjkkzzxxvclhjtTTTTTTTTTTTTTT",
"TTTTTTTTTTTTTTTTNDFVDDBxt63*cDDFFFFFFFFDDVDDFGGGGFFFFDVBBNmmczlkjkklzzzlvmvljrTTTTTTTTTTTTTT",
"TTTTTTTTTTTTTTTBFGVDFDMze84%5BFFFFFFFDDDDDDDFFFFFFFFFFFFVNmmczzzzzzzzzzzxczzjwTTTTTTTTTTTTTT",
"TTTTTTTTTTTTTTTNFFNVGDMk975%OkMDFFFFDDDFFFDFFFFFFFFFFFFFDVBNvvczzzzzkzkkzxzckr7TTTTTTTTTTTTT",
"TTTTTTTTTTTTTTTNFFMBFMct64*O*5wDGFFDDDFFDDFFFFFFFFFFFFFFDDVVMMmmccvzzkkkzlxxxkt9TTTTTTTTTTTT",
"TTTTTTTTTTTTTTTBDFNNFMcw4=O%&=qMFDDDDFFDFFFFFFFFFFFFFFFFDDVVBVBBmvvvczlkkzzlzckj8TTTTTTTTTTT",
"TTTTTTTTTTTTTTTNDFVmDvlw5&%o@@1gLDDDDFDDFFGGFFFFFFFFFFFDDVVBBVVBBmmvvxzkkkzxzzzjkwTTTTTTTTTT",
"TTTTTTTTTTTTTTTMVFDVmMlr4*Oo++2dIMBDDDDDFGGGGGFFFFFFFFFFDVVVVVVVVVMMmvzlzzkzzczjth8TTTTTTTTT",
"TTTTTTTTTTTTTTTTMBBVDMxr5&%O++<iInmNDDVDFGGKGGGGFFFFFFFFFDDVVVVVVNBMmmNvczzzzzzzhhrwTTTTTTTT",
"TTTTTTTTTTTTTTTTTTllmmxt5&o++@,2pyseBDVFGGKKKKGGGGFFFFFFFFDDVVVVVVVVBNNBmczzzzzzzzhr88TTTTTT",
"TTTTTTTTTTTTTTTTTTtMBBMw=Oo@+@$,,-;0rBVFGGKKKKKGGGGFFFGGFFDDDDVVVDDVVVBBBmvxzzzkkzkjje9TTTTT",
"TTTTTTTTTTTTTTTTTjMNDVMt4OO++@#$$o+-6zBFFGGKKKKKGGGGFFFGFDDDDDDDDDDDVVBVNNbvczkzkzkljrt8TTTT"
};
