/* XPM */
static const char *animeted_gun_3[] = {
/* columns rows colors chars-per-pixel */
"92 102 69 1 ",
"  c black",
". c #000800",
"X c #0C0804",
"o c #0C0C0C",
"O c #180804",
"+ c #18100C",
"@ c gray8",
"# c gray11",
"$ c #200C04",
"% c #280C08",
"& c #301008",
"* c #38140C",
"= c #281414",
"- c #281814",
"; c #34201C",
": c gray14",
"> c #2C2C2C",
", c gray22",
"< c #401810",
"1 c #481C10",
"2 c #401C1C",
"3 c #502014",
"4 c #542C18",
"5 c #582818",
"6 c #583018",
"7 c #60341C",
"8 c #402824",
"9 c #582824",
"0 c #643820",
"q c #6C3C24",
"w c #744028",
"e c #78482C",
"r c gray25",
"t c #484848",
"y c gray33",
"u c gray36",
"i c #646464",
"p c gray44",
"a c #7C7C7C",
"s c #804C30",
"d c #845034",
"f c #8C583C",
"g c #945C40",
"h c #986044",
"j c #A06848",
"k c #A46C50",
"l c #AC7454",
"z c #B47858",
"x c #B88060",
"c c #C08464",
"v c #C48C6C",
"b c #CC9474",
"n c #D4A07C",
"m c gray55",
"M c #989898",
"N c gray66",
"B c #B4B4B4",
"V c #DCB08C",
"C c #E4C09C",
"Z c #ECD0AC",
"A c #C0C0C0",
"S c #D0D0D0",
"D c #F4E0C0",
"F c #FCF0D4",
"G c #D0D4E0",
"H c #E4E4E4",
"J c #FCF0F0",
"K c gray99",
"L c None",
/* pixels */
"LLLLLLLLLLLLLLLLLLLLLLLLLLLLLLLLLLLLLLLLLLLLLLLLLLLLLLLLLLLLLLLLLLLLLLLLLLLLLLLLLLLLLLLLLLLL",
"LLLLLLLLLLLLLLLLLLLLLLLLLLLLLLLLLLLLLLLLLLLLLLLLLLLLLLLLLLLLLLLLLLLLLLLLLLLLLLLLLLLLLLLLLLLL",
"LLLLLLLLLLLLLLLLLLLLLLLLLLLLLLLLLLLLLLLLLLLLLLLLLLLLLLLLLLLLLLLLLLLLLLLLLLLLLLLLLLLLLLLLLLLL",
"LLLLLLLLLLLLLLLLLLLLLLLLLLLLLLLLLLLLLLLLLLLLLLLLLLLLLLLLLLLLLLLLLLLLLLLLLLLLLLLLLLLLLLLLLLLL",
"LLLLLLLLLLLLLLLLLLLLLLLLLLLLLLLLLLLLLLLLLLLLLLLLLLLLLLLLLLLLLLLLLLLLLLLLLLLLLLLLLLLLLLLLLLLL",
"LLLLLLLLLLLLLLLLLLLLLLLLLLLLLLLLLLLLLLLLLLLLLLLLLLLLLLLLLLLLLLLLLLLLLLLLLLLLLLLLLLLLLLLLLLLL",
"LLLLLLLLLLLLLLLLLLLLLLLLLLLLLLLLLLLLLLLLLLLLLLLLLLLLLLLLLLLLLLLLLLLLLLLLLLLLLLLLLLLLLLLLLLLL",
"LLLLLLLLLLLLLLLLLLLLLLLLLLLLLLLLLLLLLLLLLLLLLLLLLLLLLLLLLLLLLLLLLLLLLLLLLLLLLLLLLLLLLLLLLLLL",
"LLLLLLLLLLLLLLLLLLLLLLLLLLLLLLLLLLLLLLLLLLLLLLLLLLLLLLLLLLLLLLLLLLLLLLLLLLLLLLLLLLLLLLLLLLLL",
"LLLLLLLLLLLLLLLLLLLLLLLLLLLLLLLLLLLLLLLLLLLLLLLLLLLLLLLLLLLLLLLLLLLLLLLLLLLLLLLLLLLLLLLLLLLL",
"LLLLLLLLLLLLLLLLLLLLLLLLLLLLLLLLLLLLLLLLLLLLLLLLLLLLLLLLLLLLLLLLLLLLLLLLLLLLLLLLLLLLLLLLLLLL",
"LLLLLLLLLLLLLLLLLLLLLLLLLLLLLLLLLLLLLLLLLLLLLLLLLLLLLLLLLLLLLLLLLLLLLLLLLLLLLLLLLLLLLLLLLLLL",
"LLLLLLLLLLLLLLLLLLLLLLLLLLLLLLLLLLLLLLLLLLLLLLLLLLLLLLLLLLLLLLLLLLLLLLLLLLLLLLLLLLLLLLLLLLLL",
"LLLLLLLLLLLLLLLLLLLLLLLLLLLLLLLLLLLLLLLLLLLLLLLLLLLLLLLLLLLLLLLLLLLLLLLLLLLLLLLLLLLLLLLLLLLL",
"LLLLLLLLLLLLLLLLLLLLLLLLLLLLLLLLLLLLLLLLLLLLLLLLLLLLLLLLLLLLLLLLLLLLLLLLLLLLLLLLLLLLLLLLLLLL",
"LLLLLLLLLLLLLLLLLLLLLLLLLLLLLLLLLLLLLLLLLLLLLLLLLLLLLLLLLLLLLLLLLLLLLLLLLLLLLLLLLLLLLLLLLLLL",
"LLLLLLLLLLLLLLLLLLLLLLitLLLLLLLLLLLLLLLLLLLLLLLLLLLLLLLLLLLLLLLLLLLLLLLLLLLLLLLLLLLLLLLLLLLL",
"LLLLLLLLLLLLLLLLLLLLtrt>LLLLLLLLLLLLLLLLLLLLLLLLLLLLLLLLLLLLLLLLLLLLLLLLLLLLLLLLLLLLLLLLLLLL",
"LLLLLLLLLLLLLLLLLLt,>>>,>LLLLLLLLLLLLLLLLLLLLLLLLLLLLLLLLLLLLLLLLLLLLLLLLLLLLLLLLLLLLLLLLLLL",
"LLLLLLLLLLLLLLLLL,,::>>>,,>LLLLLLLLLLLLLLLLLLLLLLLLLLLLLLLLLLLLLLLLLLLLLLLLLLLLLLLLLLLLLLLLL",
"LLLLLLLLLLLLLLLL,:>:::>>>,,>LLLLLLLLLLLLLLLLLLLLLLLLLLLLLLLLLLLLLLLLLLLLLLLLLLLLLLLLLLLLLLLL",
"LLLLLLLLLLLLLLLL:>>>::::>>,t,LLLLLLLLLLLLLLLLLLLLLLLLLLLLLLLLLLLLLLLLLLLLLLLLLLLLLLLLLLLLLLL",
"LLLLLLLLLLLLLLL@@:>>::::::>,t,>LLLLLLLLLLLLLLLLLLLLLLLLLLLLLLLLLLLLLLLLLLLLLLLLLLLLLLLLLLLLL",
"LLLLLLLLLLLLLLL@#@#>:::::::>,tr,LLLLLLLLLLLLLLLLLLLLLLLLLLLLLLLLLLLLLLLLLLLLLLLLLLLLLLLLLLLL",
"LLLLLLLLLLLLLLL@##@#::>>>::::,rr,>LLLLLLLLLLLLLLLLLLLLLLLLLLLLLLLLLLLLLLLLLLLLLLLLLLLLLLLLLL",
"LLLLLLLLLLLLLLL@###@#>,,,>::::>rr,>LLLLLLLLLLLLLLLLLLLLLLLLLLLLLLLLLLLLLLLLLLLLLLLLLLLLLLLLL",
"LLLLLLLLLLLLLLL#:##:#:,tt,>>:::>,tr,LLLLLLLLLLLLLLLLLLLLLLLLLLLLLLLLLLLLLLLLLLLLLLLLLLLLLLLL",
"LLLLLLLLLLLLLLL@:#:>:#:>ttt,,:::>rrtr,LLLLLLLLLLLLLLLLLLLLLLLLLLLLLLLLLLLLLLLLLLLLLLLLLLLLLL",
"LLLLLLLLLLLLLLLL#>,r,:@>,yuuyr,>>:,rtr>LLLLLLLLLLLLLLLLLLLLLLLLLLLLLLLLLLLLLLLLLLLLLLLLLLLLL",
"LLLLLLLLLLLLLLLL@>,rr,:#>,yiiiut,>#:,tyr,LLLLLLLLLLLLLLLLLLLLLLLLLLLLLLLLLLLLLLLLLLLLLLLLLLL",
"LLLLLLLLLLLLLLLLL:>rrr,:@:>tupapt,>##:,yt,LLLLLLLLLLLLLLLLLLLLLLLLLLLLLLLLLLLLLLLLLLLLLLLLLL",
"LLLLLLLLLLLLLLLLL#>,rrr,##:>yimMmyr>##:,,t,LLLLLLLLLLLLLLLLLLLLLLLLLLLLLLLLLLLLLLLLLLLLLLLLL",
"LLLLLLLLLLLLLLLLL@:>,rr,>:#:>riaAm,::##>tytt,LLLLLLLLLLLLLLLLLLLLLLLLLLLLLLLLLLLLLLLLLLLLLLL",
"LLLLLLLLLLLLLLLLL@#>>,r,>>::,rrupu>:###:tiyytruLLLLLLLLLLLLLLLLLLLLLLLLLLLLLLLLLLLLLLLLLLLLL",
"LLLLLLLLLLLLLLLLL@#:>,,,>::#>,>>tr:,::>tiuuuytuaLLLLLLLLLLLLLLLLLLLLLLLLLLLLLLLLLLLLLLLLLLLL",
"LLLLLLLLLLLLLLLLLL@#:>,,>::##>:>rtytr,tip#>>>trraLLLLLLLLLLLLLLLLLLLLLLLLLLLLLLLLLLLLLLLLLLL",
"LLLLLLLLLLLLLLLLLLo@:>,>::####:,pMayyiyNm,riS##ruaLLLLLLLLLLLLLLLLLLLLLLLLLLLLLLLLLLLLLLLLLL",
"LLLLLLLLLLLLLLLLLLL@#:>:::###:>rmMmapiimy@oorN.>ryaLLLLLLLLLLLLLLLLLLLLLLLLLLLLLLLLLLLLLLLLL",
"LLLLLLLLLLLLLLLLLLLo@#:::###:>r,yiappMiy,#oooo..,ryLLLLLLLLLLLLLLLLLLLLLLLLLLLLLLLLLLLLLLLLL",
"LLLLLLLLLLLLLLLLLLLL@@:::####:>,rypmMBat,,oo  o.>,yaLLLLLLLLLLLLLLLLLLLLLLLLLLLLLLLLLLLLLLLL",
"LLLLLLLLLLLLLLLLLLLLo@#:######:>,rmBGSNay, ooooo#,ryLLLLLLLLLLLLLLLLLLLLLLLLLLLLLLLLLLLLLLLL",
"LLLLLLLLLLLLLLLLLLLLLo@::>>:##:>>yBSGSMirr Nyprr.tyryLLLLLLLLLLLLLLLLLLLLLLLLLLLLLLLLLLLLLLL",
"LLLLLLLLLLLLLLLLLLLLLo@#>>>>:@>>,pSKKJNar,ouHJGArmiyrLLLLLLLLLLLLLLLLLLLLLLLLLLLLLLLLLLLLLLL",
"LLLLLLLLLLLLLLLLLLLLL@o@::>,,#:@,MSKSNau>,ouBu@@@AmirLLLLLLLLLLLLLLLLLLLLLLLLLLLLLLLLLLLLLLL",
"LLLLLLLLLLLLLLLLLLLLL#o@#:>:##>>#uMSSmair,ouB@oooKmir,LLLLLLLLLLLLLLLLLLLLLLLLLLLLLLLLLLLLLL",
"LLLLLLLLLLLLLLLLLLLLL#@o@::#@:>,truMAmair,ouB@oooAByr#LLLLLLLLLLLLLLLLLLLLLLLLLLLLLLLLLLLLLL",
"LLLLLLLLLLLLLLLLLLLLL:# o:,>@@>mG,,uaaau>:ouB@oooMNy,@LLLLLLLLLLLLLLLLLLLLLLLLLLLLLLLLLLLLLL",
"LLLLLLLLLLLLLLLLLLLLLL: Np,>@#,mrt:,iuir>ouB@ooooMur,oLLLLLLLLLLLLLLLLLLLLLLLLLLLLLLLLLLLLLL",
"LLLLLLLLLLLLLLLLLLLLLL# py#:##,,:ya:,u,r>otB@@@o:utt##LLLLLLLLLLLLLLLLLLLLLLLLLLLLLLLLLLLLLL",
"LLLLLLLLLLLLLLLLLLLLLL@0yr>>##>y:ia@:,,>:otB::@o@:,,##LLLLLLLLLLLLLLLLLLLLLLLLLLLLLLLLLLLLLL",
"LLLLLLLLLLLLLLLLLLLLwwdds:##:#>>,iM@::::X:,u,,>X@o:#o#LLLLLLLLLLLLLLLLLLLLLLLLLLLLLLLLLLLLLL",
"LLLLLLLLLLLLLLLLqfhkkzjgw:::###:@mm @::>X:,u,,>X@o#oo#LLLLLLLLLLLLLLLLLLLLLLLLLLLLLLLLLLLLLL",
"LLLLLLLLLLLLqeflllcxxjhdw:##::#o>XXX@:>>X@::>>@,:#ooo#66qeqLLLLLLLLLLLLLLLLLLLLLLLLLLLLLLLLL",
"LLLLLLLLwqwdhczlkjhjhffs0:###@@@,@. >,:>XXXX@@@,,#@@@>440eeeeeLLLLLLLLLLLLLLLLLLLLLLLLLLLLLL",
"LLLLLLLwdhkbbvVVCVnnbbnvxx0#@XX@:y@.@>@:::@@XXX,u,:##@o<347edgseLLLLLLLLLLLLLLLLLLLLLLLLLLLL",
"LLLLLLL0klvnZZZCCVVVnbbvvvzz0@o@@#> XX:>@o.X X@>ry,:#@o&*30eggggd0LLLLLLLLLLLLLLLLLLLLLLLLLL",
"LLLLLLLwkkbZZZZZCVVVVVbbxxlkje<o  XX@@:@  #,ypyr#>:@@oX$&10wfjjjjjewLLLLLLLLLLLLLLLLLLLLLLLL",
"LLLLLLLsjkZZDDDZZZCCCVVbbvllkf03$  .. X#     oo@:r>@XX**6esgkkkkjkle0LLLLLLLLLLLLLLLLLLLLLLL",
"LLLLLLLgjvDFFFFFDZZCCCVVVbvxlllgw3o   .@#o. XX @:ia@@4eegkllllklklxzje4LLLLLLLLLLLLLLLLLLLLL",
"LLLLLLLLfbZDFFFFFFZZZCCCCVVbvxlhffq6<o..  ooo@oo@:rfzzxxxxxvxxxcxcbvvxkqLLLLLLLLLLLLLLLLLLLL",
"LLLLLLLLLbZZZDDFFFDDZZZCCCCVbvllhhfee<    X .XoX$0jzxcxxxvvvxxcvvbnnbbvj6LLLLLLLLLLLLLLLLLLL",
"LLLLLLLLLxZCZZDZDFFFDZZZCCCCnclkkhhhjzw<     XqfgfkbvxxxvvvxxvcvbbnVVVVz0LLLLLLLLLLLLLLLLLLL",
"LLLLLLLLLlZZCCCZCZFFFFDZZZCVbclkkhhhhjvbw<<<qedggkxvlzxxxxxxvvbbbnnVCCCnqLLLLLLLLLLLLLLLLLLL",
"LLLLLLLLLgZnnCnCZZFFFFFDZZZVbczkkjhhhhlvbzjgsqqeedhjjjjkllzxvvbbnnVCZZZbeLLLLLLLLLLLLLLLLLLL",
"LLLLLLLLLgZVncvVVVDFFFFFDZZCbvzlkkhhhhhlcvcllgseeesffghjklxxvbbnnVCZZZCneLLLLLLLLLLLLLLLLLLL",
"LLLLLLLLLhCCVnllnVCDFFFFFDZCnbxzlkkhghhhkvbxkkfssssffhjjllcvvbbnnVCCCCCVsLLLLLLLLLLLLLLLLLLL",
"LLLLLLLLLhCVnvlfdcCDFFFFFDZCbbvclkkjhhhhkzzzlkgffffffhjkllcvvbbnVVVVCCCVsLLLLLLLLLLLLLLLLLLL",
"LLLLLLLLLjCVnvch01hZFFFFFFDCVbvcxlljkhhhhkllxlkhhffgggjklzcvvbnnnnnVVCCnsLLLLLLLLLLLLLLLLLLL",
"LLLLLLLLLlVnncjhe7&nZDFFFFDZCVvcxxlkjhhhhhkllllkjgffghjkllxcvbbnnnnnnVVvsLLLLLLLLLLLLLLLLLLL",
"LLLLLLLLLxVbvcjje633VDDFFFDZCVnbcxkjhhhhhhhhkkkjjhhgjjjkkzxxvvbnnnnnnnCzeLLLLLLLLLLLLLLLLLLL",
"LLLLLLLLLxbvcxjjeq41zDDDDDDZCVVnvxlkjhhhhhhhhjjkjhjhjkkkllxxcvbbnnnnnbCksLLLLLLLLLLLLLLLLLLL",
"LLLLLLLLLkbxljjjd003dnZZDDDZZCCVbxlljjjjhhhhhhjjjhhjjkkkllxccvbbbnnnnVVzsLLLLLLLLLLLLLLLLLLL",
"LLLLLLLLLLlzjhje0715qbZZDDDDZZCVbxzzljjjhhghhhhjjhhjkkkkllxcccbbbnnnnVnvwLLLLLLLLLLLLLLLLLLL",
"LLLLLLLLLLwhjjq7dcZCbcnDDDDDZZCCnbxzzljjhhhhhhhhhhhjjkkkklxxccbbbbnnnnVnwLLLLLLLLLLLLLLLLLLL",
"LLLLLLLLLLL00jCCCCVVcjcZDFFDZZCCVVbvxzjjhhhghgghhhhhjkkkklxxccvbbbnnnnVVdLLLLLLLLLLLLLLLLLLL",
"LLLLLLLLLLLLwVCCZCCVbhvZDFFDDZZCCVnbcxkghhhgghhhhhghjkkkkkzzxcvbbbnnnnVVdLLLLLLLLLLLLLLLLLLL",
"LLLLLLLLLLLLjCCZVCCncfvCDFFDDZZCCVnbvxkhhhhhhhhhhgghjjkkkklzxccvbbbnnnnVg6LLLLLLLLLLLLLLLLLL",
"LLLLLLLLLLLLzCCZVZVblqhVZFFFDZZCCVnbvxlkhhhhhhhhhhhhjjjkkklzxcvvbbbnnnnVk0LLLLLLLLLLLLLLLLLL",
"LLLLLLLLLLLLjCCZVZVchwhVZDFFDZZCCVnbvcxlkkhhhhhhhhgghhjjkklzxcvvbbbbnnnbj0LLLLLLLLLLLLLLLLLL",
"LLLLLLLLLLLLgVCZbVncfwelCDFFDDZZCVVnbvxllkkkhhhggggghggjkklzxxvvvbbbnnnbzwLLLLLLLLLLLLLLLLLL",
"LLLLLLLLLLLLhnZZnnVjf70gZDFFFDZZCVVnbvxzlllkkhhgggggghhjkllzzxvvvbbbbnnnxwLLLLLLLLLLLLLLLLLL",
"LLLLLLLLLLLLLhZCZVnld00dZDDFFDZZCVVnbvczzllllkhhhhhhhhhhhklzzcvvvvbbbbnnl0LLLLLLLLLLLLLLLLLL",
"LLLLLLLLLLLLL0vZCDVlh07wCCDFFDZZCCVnnbclzllxlkkjhhhgggghhhllxcvvvvvvbbnCz0LLLLLLLLLLLLLLLLLL",
"LLLLLLLLLLLLLL7jnVCCjfqsVCZDDDZZCCVVnbxlllxxxlkkjhghhhhhhhllxxvcvvvvvcvnz6LLLLLLLLLLLLLLLLLL",
"LLLLLLLLLLLLLqxVCZCCnjqqxVZDDDZZCCCVnbxllzxxxxlkkgggghhgggkllxcxcvvvvvvvl0LLLLLLLLLLLLLLLLLL",
"LLLLLLLLLLLLdnVZZZZCCVlwhVZZDDZZZCCVnbxllzxcvvxlkhhggghgghhlxxxxvvbbcccck0LLLLLLLLLLLLLLLLLL",
"LLLLLLLLLLLfnZCCZZCVncfwfnZZZZZZZCCVVbxllzxcvbbxlhhhhhhhhhhhjzxxccccvcxcl0LLLLLLLLLLLLLLLLLL",
"LLLLLLLLLLLlZZCCCCCVVhf7qvCCZZZZZCCVVnxzzxxcvnnvxkjhhhhggfdfhjlxxxxccccxk0LLLLLLLLLLLLLLLLLL",
"LLLLLLLLLLLxDZCCCnVVch66$eVCCCZZZZCCVnvcxxxvvnnbxljjhffffdsddgllzxxxccxzz0LLLLLLLLLLLLLLLLLL",
"LLLLLLLLLLLhDZCVbZZnje11oOlCCCCZZZCCVVbvxxxbbbVnvvxljgfffddddgjklzzxzllzl0LLLLLLLLLLLLLLLLLL",
"LLLLLLLLLLLhDZCnbZCnj76&$$enZCCCZZCCVVnbbvvbnnCVbbvxljhfhfdddgjjhjllllzzjqLLLLLLLLLLLLLLLLLL",
"LLLLLLLLLLLfDZZncCVce7**o&9xVCCCCCCCCVnnbbbnnVCCVnbxzlhhffdddfhhfghkkklzkqLLLLLLLLLLLLLLLLLL",
"LLLLLLLLLLLLcZZVxVnjq6*Ooo;6bCCCCCCCCVnnbbbnnVCCVVnbvxkhhfdgghhffhhjjkllk7LLLLLLLLLLLLLLLLLL",
"LLLLLLLLLLLLLxCZbbvjq6&$oo-:xVCCCCCCCVVnbbbVVCCCCVVbcxkllhffdfddfhjjkkjllsLLLLLLLLLLLLLLLLLL",
"LLLLLLLLLLLLLLkvbCnje6$$o@@oabCCCCCCCVVVVVVVCCCCCVCVVbvxlkkgfhhhhhhjkkkkkeLLLLLLLLLLLLLLLLLL",
"LLLLLLLLLLLLLhVDVnVVl6* o@@opvVVCCCVVVVVVVVVCCCCCVVVVnnbxlhhhgfhhhfhhkjjlgeLLLLLLLLLLLLLLLLL",
"LLLLLLLLLLLLLlDCVVvhe*o$@+@#yHxVVVVVVVVVVVVCCCCCVVVVVVVnbclhhhhfdfhhghjjllgeLLLLLLLLLLLLLLLL",
"LLLLLLLLLLLLLvZVCVbe*$o&-++#iMwbnVVVVVCCCCCCCCCCVVVCCCVVnvclhhhhhhhhhhhhlljgLLLLLLLLLLLLLLLL",
"LLLLLLLLLLLLLbCCVnj7*&o&=+%-:::hvVVVVCCCCCCCCCCVCVVCCVVnnbcxlklkhhhhgghhgjfhqLLLLLLLLLLLLLLL",
"LLLLLLLLLLLLLxZCnjq1*O&=@+++@o-81cCVCCZZZCCCZZCVVCCVVVVnnnnbbvxxlkhhhhfhghhff0LLLLLLLLLLLLLL",
"LLLLLLLLLLLLLzZVlj61&O@-@++@+@+=2fVVCCZZZCZZZZZZCCVVVVnnnnbnnbvvxlkgggffghhfsfwLLLLLLLLLLLLL",
"LLLLLLLLLLLLLdVnjq6*OO+-@%%%@oo+-*bVCZZZZDDZZCCCCCCCVnnnnnnbnvvvxxxkkfghfggfsswqLLLLLLLLLLLL"
};
